<svg xmlns="http://www.w3.org/2000/svg" viewBox="0 0 1200 675" role="img" aria-label="Car placeholder image">
  <defs>
    <linearGradient id="bg" x1="0" y1="0" x2="1" y2="1">
      <stop offset="0%" stop-color="#0f172a"/>
      <stop offset="100%" stop-color="#334155"/>
    </linearGradient>
    <linearGradient id="road" x1="0" y1="0" x2="1" y2="0">
      <stop offset="0%" stop-color="#1e293b"/>
      <stop offset="100%" stop-color="#0b1220"/>
    </linearGradient>
  </defs>
  <rect width="1200" height="675" fill="url(#bg)"/>
  <rect y="470" width="1200" height="205" fill="url(#road)"/>
  <g fill="#94a3b8" opacity="0.2">
    <circle cx="150" cy="140" r="42"/>
    <circle cx="1040" cy="110" r="30"/>
    <circle cx="820" cy="190" r="18"/>
  </g>
  <g transform="translate(220 250)">
    <path d="M85 150h565c30 0 57 14 73 37l42 58H26l26-39c15-23 34-39 33-56z" fill="#e2e8f0"/>
    <path d="M165 140l82-93h260l102 93z" fill="#cbd5e1"/>
    <circle cx="190" cy="255" r="58" fill="#0f172a"/>
    <circle cx="190" cy="255" r="26" fill="#64748b"/>
    <circle cx="595" cy="255" r="58" fill="#0f172a"/>
    <circle cx="595" cy="255" r="26" fill="#64748b"/>
    <rect x="314" y="88" width="113" height="46" rx="8" fill="#94a3b8" opacity="0.5"/>
    <rect x="447" y="88" width="113" height="46" rx="8" fill="#94a3b8" opacity="0.5"/>
  </g>
  <text x="600" y="610" text-anchor="middle" font-size="34" font-family="ui-sans-serif, system-ui, -apple-system, Segoe UI, Roboto" fill="#cbd5e1" opacity="0.85">
    Car image unavailable
  </text>
</svg>
